<svg xmlns="http://www.w3.org/2000/svg" version="1.1" xmlns:xlink="http://www.w3.org/1999/xlink" xmlns:svgjs="http://svgjs.dev/svgjs" width="100%" height="100%" viewBox="0 0 1000 600"><rect width="1000" height="600" x="0" y="0" fill="#ffffff"/><g><circle r="166.66666666666666" cx="360.45763651529944" cy="382.6798624741608" fill="#475e6b" transform="matrix(0.6450248781812146,0,0,0.6450248781812146,0,53.161961763668046)"/><path d="M243.4174269405328 457.6798735889755L243.4174269405328 307.6798788627503L268.5221600335898 307.6798788627503L268.5221600335898 371.40002743937043L327.0579769952483 371.40002743937043L327.0579769952483 307.6798788627503L352.00560913027607 307.6798788627503L352.00560913027607 457.6798735889755L327.0579769952483 457.6798735889755L327.0579769952483 390.62918470213754L268.5221600335898 390.62918470213754L268.5221600335898 457.6798735889755L243.4174269405328 457.6798735889755ZM378.52425084559525 457.6798735889755L374.0940038291735 439.6761037988358L439.5108427525083 340.7967608152935L451.63903671235823 326.87761593391156Q438.28545527988103 327.0032967003348 426.0944209368196 327.0032967003348Q413.87196640215234 327.0032967003348 404.3830685371921 327.0032967003348L404.3830685371921 327.0032967003348L383.70858246055695 327.0032967003348Q382.82881709559376 323.3585544740587 382.4517747963239 320.8763593371983Q382.0747324970539 318.39416420033785 382.0747324970539 316.6346334704115L382.0747324970539 316.6346334704115Q382.0747324970539 314.8436825488792 382.32609402990056 313.20983258537615Q382.608875754353 311.5445624302672 382.9544978620171 310.3191749576399L382.9544978620171 310.3191749576399Q383.39438054449874 308.87384614377174 383.92852380179784 307.6798788627503L383.92852380179784 307.6798788627503L475.17276022512374 307.6798788627503L477.40359382913755 325.5579678864667L411.76681356456186 424.3116301035857L398.28755136566144 438.1365144101502Q404.9172117944912 438.1365144101502 411.8924943309852 438.1365144101502Q418.8363566758733 438.1365144101502 425.62311806273215 438.07367402693853Q432.4412996411969 438.01083364372687 438.8824389203918 438.01083364372687Q445.35499839119245 438.01083364372687 450.9792126886358 438.01083364372687L450.9792126886358 438.01083364372687L476.8380303802327 438.01083364372687Q476.9637111466559 438.89059900869006 477.1836524878968 439.77036437365325L477.1836524878968 439.77036437365325Q477.2779130627142 440.555869163799 477.40359382913755 441.5613152951855Q477.4978544039551 442.53534123496615 477.4978544039551 443.41510659992935L477.4978544039551 443.41510659992935Q477.4978544039551 445.7402007787607 476.8380303802327 449.3535228134309Q476.17820635651026 452.93542465649534 474.29299486016055 457.6798735889755L474.29299486016055 457.6798735889755L378.52425084559525 457.6798735889755Z " fill="#ffffff" transform="matrix(0.6450248781812146,0,0,0.6450248781812146,0,53.161961763668046)"/><path d="M610.45764152852 455.6618049899738L610.45764152852 318.02967654517136L657.5939067164655 318.02967654517136Q667.7418977538703 318.02967654517136 675.7565043118205 320.79731046446364Q683.7422813497784 323.59377390374846 689.335208228348 328.92723510238454Q694.8993055869252 334.23186678102786 697.7822575861878 341.90051909906674Q700.6652095854505 349.54034189711297 700.6652095854505 359.284719654621L700.6652095854505 359.284719654621Q700.6652095854505 368.07772325237227 697.5804509462395 376.14998885030786Q694.4956923070283 384.1934249282509 688.3550045485987 390.44943076665095Q682.2431463101617 396.67660708505844 673.1041884724989 400.36678564411477Q663.9940601548287 404.08579372316365 651.9144912779179 404.08579372316365L651.9144912779179 404.08579372316365Q648.0801651188984 404.08579372316365 644.7359407997537 403.97047564319314Q641.391716480609 403.8839870832153 638.8547187212578 403.6533509232743L638.8547187212578 403.6533509232743Q635.9141076820098 403.4515442833259 633.4924280026291 403.1632490833996L633.4924280026291 403.1632490833996L633.4924280026291 455.6618049899738L610.45764152852 455.6618049899738ZM633.4924280026291 335.6445132606666L633.4924280026291 386.03851420777903Q634.9915630422457 386.2403208477274 638.0474921614642 386.49978652766106Q641.07459176069 386.7304226876021 645.3413607195989 386.7304226876021L645.3413607195989 386.7304226876021Q652.2316159978368 386.7304226876021 658.0551790363476 385.31777620796333Q663.8787420748582 383.9051297283246 668.1455110337671 380.82037108911356Q672.4122799926758 377.70678292990976 674.7763006320713 372.74810549117785Q677.1691507914594 367.78942805244606 677.1691507914594 360.6973661342597L677.1691507914594 360.6973661342597Q677.1691507914594 355.0179506957121 675.9871404717616 350.4052274968918Q674.8339596720565 345.79250429807144 672.3546209526907 342.50593901891193Q669.8752822333247 339.2193737397524 665.9256379943348 337.4319435002095Q661.9471642353521 335.6445132606666 656.3830668767752 335.6445132606666L656.3830668767752 335.6445132606666L633.4924280026291 335.6445132606666ZM713.234880302236 403.8839870832153L713.234880302236 403.8839870832153Q713.234880302236 390.4782602866436 716.8385703013145 380.2437806892609Q720.4422603003928 370.00930109187834 726.9865613387192 363.11904581364035Q733.5020328570529 356.2287905354025 742.5833316547305 352.6827595763093Q751.664630452408 349.13672861721614 762.5910185296137 349.13672861721614L762.5910185296137 349.13672861721614Q773.863360846731 349.13672861721614 782.8870006044233 352.42329389637564Q791.8818108421231 355.7386886955278 798.1666462005157 362.4271373338173Q804.4514815589085 369.1155859721068 807.7957058780532 379.09059988955585Q811.1399301971979 389.06561380700487 811.1399301971979 402.4425110835839L811.1399301971979 402.4425110835839Q811.1399301971979 415.8194083601629 807.7668763580606 426.1692060375161Q804.3649929989306 436.5190037148693 798.0224986005526 443.49574755308504Q791.6800042021746 450.50132091129353 782.7140234844676 454.1050109103719Q773.7480427667605 457.67987138945773 762.5910185296137 457.67987138945773L762.5910185296137 457.67987138945773Q751.0592105325628 457.67987138945773 741.8625936549148 454.30681755032026Q732.6948062972593 450.90493419119025 726.381141418874 444.15882651291554Q720.038647020496 437.4127188346407 716.636763661366 427.3223868372212Q713.234880302236 417.2608843597943 713.234880302236 403.8839870832153ZM762.5910185296137 440.9587497937339L762.5910185296137 440.9587497937339Q769.2794671679032 440.9587497937339 774.2093150866425 438.0757977944712Q779.1103334853891 435.1928457952084 782.2527511645856 430.0611912365208Q785.3951688437819 424.95836619782574 786.9231334033911 417.89513379963216Q788.4510979630004 410.860730921431 788.4510979630004 402.4425110835839L788.4510979630004 402.4425110835839Q788.4510979630004 384.3087430082214 782.2527511645856 374.79500141065444Q776.0832338861633 365.2524302930948 762.5910185296137 365.2524302930948L762.5910185296137 365.2524302930948Q755.8160813313464 365.2524302930948 750.7997448526293 368.1353822923576Q745.7834083739122 371.01833429162025 742.4968430947525 376.2076478902932Q739.1814482956005 381.36813196897344 737.5669951760134 388.4601938871597Q735.9525420564263 395.552255805346 735.9525420564263 403.8839870832153L735.9525420564263 403.8839870832153Q735.9525420564263 422.21956179852623 742.4968430947525 431.58915579613006Q749.0123146130863 440.9587497937339 762.5910185296137 440.9587497937339ZM826.9673366731504 350.9529883767517L845.6200361083802 350.9529883767517L856.0563223457112 361.9082059739501Q857.1806736254237 359.3712082145988 858.9392743449739 357.09367613518134Q860.7267045845168 354.81614405576374 863.0907252239123 353.08637285620614Q865.4835753833003 351.35660165664854 868.4530159425409 350.3475684569065Q871.4512860217741 349.3385352571646 874.9973169808673 349.3385352571646L874.9973169808673 349.3385352571646Q877.9379280201152 349.3385352571646 880.6767324194149 349.79980757704664Q883.4155368187145 350.26107989692866 886.6732725778813 351.35660165664854L886.6732725778813 351.35660165664854Q886.7597611378592 351.5584082965969 886.9039087378223 352.9998842962283Q887.0768858577782 354.412530775867 887.0768858577782 356.54591525532135L887.0768858577782 356.54591525532135Q887.0768858577782 358.16036837490856 886.8750792178297 360.3514118943482Q886.6732725778813 362.51362589379517 886.2120002579993 364.79115797321276Q885.7507279381173 367.06869005263036 884.8858423383384 369.3173926120553Q884.0209567385596 371.5372656514876 882.6947988188988 373.1517187710747L882.6947988188988 373.1517187710747L880.7920504993853 373.6706501309419Q878.7451545799089 372.6616169312 876.2658158605428 371.9408789313843Q873.786477141177 371.2201409315686 871.1629908218479 371.2201409315686L871.1629908218479 371.2201409315686Q867.0980285028874 371.2201409315686 864.3592241035878 371.79673133142114Q861.6204197042882 372.34449221128114 859.8906485047306 372.9499121311263L859.8906485047306 372.9499121311263Q857.8725821052467 373.6706501309419 856.6617422655564 374.5643652507134L856.6617422655564 374.5643652507134L856.6617422655564 455.6618049899738L834.9819432311007 455.6618049899738L834.9819432311007 370.6147210117234L826.9673366731504 362.4271373338173L826.9673366731504 350.9529883767517ZM908.4395601723148 426.68813739738346L908.4395601723148 367.78942805244606L895.1779809757064 367.78942805244606Q895.0626628957358 366.6650767727335 894.976174335758 365.3677483730653L894.976174335758 365.3677483730653Q894.8608562557874 364.2433970933529 894.8320267357948 362.71543253374364Q894.7743676958095 361.1874679741344 894.7743676958095 359.3712082145988L894.7743676958095 359.3712082145988Q894.7743676958095 357.55494845506337 894.8608562557874 355.9693248554688Q894.976174335758 354.412530775867 895.1779809757064 352.0773396564641L895.1779809757064 352.0773396564641L908.4395601723148 352.0773396564641L908.4395601723148 335.9616379805856L920.1155157693289 322.7865473439549L929.1391555270212 322.7865473439549L929.1391555270212 352.0773396564641L957.8245279196852 352.0773396564641Q958.0263345596337 353.08637285620614 958.1704821595969 354.4990193358449Q958.3146297595599 355.94049533547616 958.3146297595599 357.2378237351444L958.3146297595599 357.2378237351444Q958.3146297595599 359.5730148545473 957.8533574396779 361.50459269405326Q957.3920851197959 363.43617053355933 956.9019832799212 364.8488170131981L956.9019832799212 364.8488170131981Q956.296563360076 366.46327013278517 955.4893368002824 367.78942805244606L955.4893368002824 367.78942805244606L929.1391555270212 367.78942805244606L929.1391555270212 426.57281931741284Q929.1391555270212 433.98200595551816 931.6184942463872 437.32623027466286Q934.0978329657531 440.67045459380756 939.5754417643521 440.67045459380756L939.5754417643521 440.67045459380756Q941.910632883755 440.67045459380756 944.4764601630989 440.093864193955Q947.0711169624353 439.54610331409515 949.4063080818381 438.7388767543016L949.4063080818381 438.7388767543016Q952.0297944011671 437.81633211453754 954.7685988004667 436.7208103548177L954.7685988004667 436.7208103548177Q956.7866651999508 439.3442966741468 957.9686755196484 441.88129443349794Q959.1218563193535 444.4182921928492 959.6407876792208 446.436358592333L959.6407876792208 446.436358592333Q960.246207599066 448.7715497117358 960.3326961590438 450.78961611121974L960.3326961590438 450.78961611121974Q957.5074031997664 452.7211939507258 953.9613722406733 454.24915851033506L953.9613722406733 454.24915851033506Q950.8189545614767 455.5464869100033 946.46569704259 456.6131791497305Q942.1124395237034 457.67987138945773 936.4330240851558 457.67987138945773L936.4330240851558 457.67987138945773Q928.533735607176 457.67987138945773 923.2002744085399 455.719464029959Q917.866813209904 453.7302271504677 914.5802479307445 449.83824195146303Q911.293682651585 445.9174272324658 909.8810361719462 440.093864193955Q908.4395601723148 434.2703011554444 908.4395601723148 426.68813739738346L908.4395601723148 426.68813739738346ZM986.1927755924304 455.6618049899738L986.1927755924304 367.78942805244606L971.2014251962643 367.78942805244606Q970.8843004763454 365.3677483730653 970.7978119163676 363.23436389361086Q970.6824938363969 361.10097941415654 970.6824938363969 359.3712082145988L970.6824938363969 359.3712082145988Q970.6824938363969 356.2287905354025 970.999618556316 354.21072413591855L970.999618556316 354.21072413591855Q971.0861071162938 353.08637285620614 971.2879137562422 352.0773396564641L971.2879137562422 352.0773396564641L986.1927755924304 352.0773396564641L986.1927755924304 340.9203154193175Q986.1927755924304 334.54899150094684 988.1531829519291 328.5236218224877Q990.1424198314204 322.46942262403604 994.2362116703733 317.8855289452083Q998.358833029319 313.2728057463879 1004.6436683877118 310.4763423071031Q1010.9285037461046 307.6798788678182 1019.635018783878 307.6798788678182L1019.635018783878 307.6798788678182Q1023.9017877427868 307.6798788678182 1027.0442054219834 308.083492147715Q1030.1866231011795 308.4871054276118 1032.406496140612 309.00603678747905L1032.406496140612 309.00603678747905Q1035.029982459941 309.61145670732424 1036.8750717394691 310.33219470713993L1036.8750717394691 310.33219470713993Q1036.6732650995204 312.84036294649854 1036.1543337396533 315.57916734579806L1036.1543337396533 315.57916734579806Q1035.6642318997788 317.91435846520085 1034.6840282200296 320.91262854443414Q1033.7326540602726 323.9108986236673 1032.0893714206932 326.93799822289327L1032.0893714206932 326.93799822289327Q1030.5902363810765 326.53438494299644 1028.7451471015484 326.1307716630996L1028.7451471015484 326.1307716630996Q1027.2460120619317 325.81364694318074 1025.1991161424553 325.52535174325453Q1023.1810497429711 325.20822702333555 1021.1629833434872 325.20822702333555L1021.1629833434872 325.20822702333555Q1014.2727280652493 325.20822702333555 1010.8708447061193 329.0137236623624Q1007.4689613469893 332.8192203013891 1007.4689613469893 341.52573533916257L1007.4689613469893 341.52573533916257L1007.4689613469893 352.0773396564641L1030.2731116611576 352.0773396564641Q1030.3884297411278 352.48095293636095 1030.4749183011058 353.08637285620614L1030.4749183011058 353.08637285620614Q1030.5902363810765 353.60530421607336 1030.676724941054 354.3548717358817Q1030.7920430210247 355.10443925569007 1030.7920430210247 356.14230197542463L1030.7920430210247 356.14230197542463Q1030.7920430210247 358.16036837490856 1030.215452621172 361.10097941415654Q1029.6676917413124 364.0415904534044 1027.8514319817768 367.78942805244606L1027.8514319817768 367.78942805244606L1007.4689613469893 367.78942805244606L1007.4689613469893 455.6618049899738L986.1927755924304 455.6618049899738ZM1043.5635203777588 403.8839870832153L1043.5635203777588 403.8839870832153Q1043.5635203777588 390.4782602866436 1047.167210376837 380.2437806892609Q1050.742070855923 370.00930109187834 1057.286371894249 363.11904581364035Q1063.8306729325755 356.2287905354025 1072.9119717302533 352.6827595763093Q1081.9644410079381 349.13672861721614 1092.9196586051362 349.13672861721614L1092.9196586051362 349.13672861721614Q1104.163171402261 349.13672861721614 1113.1868111599533 352.42329389637564Q1122.2104509176456 355.7386886955278 1128.4952862760383 362.4271373338173Q1134.780121634431 369.1155859721068 1138.1243459535758 379.09059988955585Q1141.4685702727206 389.06561380700487 1141.4685702727206 402.4425110835839L1141.4685702727206 402.4425110835839Q1141.4685702727206 415.8194083601629 1138.0666869135907 426.1692060375161Q1134.6648035544608 436.5190037148693 1128.3511386760752 443.49574755308504Q1122.0086442776974 450.50132091129353 1113.0426635599902 454.1050109103719Q1104.0766828422834 457.67987138945773 1092.9196586051362 457.67987138945773L1092.9196586051362 457.67987138945773Q1081.359021088093 457.67987138945773 1072.1912337304375 454.30681755032026Q1063.023446372782 450.90493419119025 1056.6809519744038 444.15882651291554Q1050.338457576026 437.4127188346407 1046.9654037368887 427.3223868372212Q1043.5635203777588 417.2608843597943 1043.5635203777588 403.8839870832153ZM1092.9196586051362 440.9587497937339L1092.9196586051362 440.9587497937339Q1099.6081072434258 440.9587497937339 1104.5091256421724 438.0757977944712Q1109.438973560912 435.1928457952084 1112.5813912401081 430.0611912365208Q1115.7238089193047 424.95836619782574 1117.251773478914 417.89513379963216Q1118.7509085185307 410.860730921431 1118.7509085185307 402.4425110835839L1118.7509085185307 402.4425110835839Q1118.7509085185307 384.3087430082214 1112.5813912401081 374.79500141065444Q1106.383044441693 365.2524302930948 1092.9196586051362 365.2524302930948L1092.9196586051362 365.2524302930948Q1086.1158918868764 365.2524302930948 1081.0995554081592 368.1353822923576Q1076.083218929442 371.01833429162025 1072.7966536502827 376.2076478902932Q1069.510088371123 381.36813196897344 1067.8668057315435 388.4601938871597Q1066.2523526119562 395.552255805346 1066.2523526119562 403.8839870832153L1066.2523526119562 403.8839870832153Q1066.2523526119562 422.21956179852623 1072.7966536502827 431.58915579613006Q1079.3409546886091 440.9587497937339 1092.9196586051362 440.9587497937339ZM1161.7357228275378 438.21994539443426L1161.7357228275378 309.8132633472726L1182.7236133821702 309.8132633472726L1182.7236133821702 438.6235586743311L1188.691324020644 442.89032763323996L1188.691324020644 455.6618049899738L1182.9254200221185 455.6618049899738L1182.7236133821702 455.45999835002533L1182.7236133821702 455.6618049899738Q1172.6909404247358 455.6618049899738 1167.2133316261366 451.5968426710134Q1161.7357228275378 447.56070987204555 1161.7357228275378 438.21994539443426L1161.7357228275378 438.21994539443426ZM1224.0651450515975 334.54899150094684L1224.0651450515975 334.54899150094684Q1221.2398520923198 334.54899150094684 1218.7316838529614 333.5399583012048Q1216.2523451335956 332.5309251014629 1214.378426334075 330.8011539019053Q1212.5045075345543 329.0713827023476 1211.408985774834 326.7938506229301Q1210.2846344951217 324.5163185435125 1210.2846344951217 321.86400270419085L1210.2846344951217 321.86400270419085Q1210.2846344951217 319.1251983048912 1211.408985774834 316.8188367054811Q1212.5045075345543 314.4836455860783 1214.378426334075 312.7538743865206Q1216.2523451335956 311.024103186963 1218.7316838529614 310.07272902720626Q1221.2398520923198 309.09252534745696 1224.0651450515975 309.09252534745696L1224.0651450515975 309.09252534745696Q1226.9192675308677 309.09252534745696 1229.427435770226 310.07272902720626Q1231.9644335295775 311.024103186963 1233.8383523290981 312.7538743865206Q1235.7122711286188 314.4836455860783 1236.8366224083316 316.8188367054811Q1237.9609736880439 319.1251983048912 1237.9609736880439 321.86400270419085L1237.9609736880439 321.86400270419085Q1237.9609736880439 324.5163185435125 1236.8366224083316 326.7938506229301Q1235.7122711286188 329.0713827023476 1233.8383523290981 330.8011539019053Q1231.9644335295775 332.5309251014629 1229.427435770226 333.5399583012048Q1226.9192675308677 334.54899150094684 1224.0651450515975 334.54899150094684ZM1212.4180189745762 438.21994539443426L1212.4180189745762 352.0773396564641L1233.4923980891867 352.0773396564641L1233.4923980891867 438.6235586743311L1239.4601087276606 442.89032763323996L1239.4601087276606 455.6618049899738L1233.694204729135 455.6618049899738L1233.4923980891867 455.45999835002533L1233.4923980891867 455.6618049899738Q1223.4597251317523 455.6618049899738 1217.924457293168 451.5968426710134Q1212.4180189745762 447.56070987204555 1212.4180189745762 438.21994539443426L1212.4180189745762 438.21994539443426ZM1258.6317395227575 403.8839870832153L1258.6317395227575 403.8839870832153Q1258.6317395227575 390.4782602866436 1262.235429521836 380.2437806892609Q1265.8391195209142 370.00930109187834 1272.3545910392481 363.11904581364035Q1278.8988920775746 356.2287905354025 1287.980190875252 352.6827595763093Q1297.0326601529368 349.13672861721614 1307.9878777501353 349.13672861721614L1307.9878777501353 349.13672861721614Q1319.2313905472597 349.13672861721614 1328.255030304952 352.42329389637564Q1337.2786700626448 355.7386886955278 1343.5635054210375 362.4271373338173Q1349.8483407794301 369.1155859721068 1353.192565098575 379.09059988955585Q1356.5367894177193 389.06561380700487 1356.5367894177193 402.4425110835839L1356.5367894177193 402.4425110835839Q1356.5367894177193 415.8194083601629 1353.1349060585894 426.1692060375161Q1349.7330226994595 436.5190037148693 1343.4193578210743 443.49574755308504Q1337.076863422696 450.50132091129353 1328.1108827049889 454.1050109103719Q1319.144901987282 457.67987138945773 1307.9878777501353 457.67987138945773L1307.9878777501353 457.67987138945773Q1296.4272402330917 457.67987138945773 1287.2594528754362 454.30681755032026Q1278.0916655177807 450.90493419119025 1271.749171119403 444.15882651291554Q1265.4066767210247 437.4127188346407 1262.0336228818874 427.3223868372212Q1258.6317395227575 417.2608843597943 1258.6317395227575 403.8839870832153ZM1307.9878777501353 440.9587497937339L1307.9878777501353 440.9587497937339Q1314.676326388425 440.9587497937339 1319.606174307164 438.0757977944712Q1324.5071927059107 435.1928457952084 1327.6496103851068 430.0611912365208Q1330.7920280643034 424.95836619782574 1332.3199926239126 417.89513379963216Q1333.8191276635293 410.860730921431 1333.8191276635293 402.4425110835839L1333.8191276635293 402.4425110835839Q1333.8191276635293 384.3087430082214 1327.6496103851068 374.79500141065444Q1321.4800931066848 365.2524302930948 1307.9878777501353 365.2524302930948L1307.9878777501353 365.2524302930948Q1301.184111031875 365.2524302930948 1296.1677745531583 368.1353822923576Q1291.151438074441 371.01833429162025 1287.8648727952814 376.2076478902932Q1284.578307516122 381.36813196897344 1282.9638543965348 388.4601938871597Q1281.320571756955 395.552255805346 1281.320571756955 403.8839870832153L1281.320571756955 403.8839870832153Q1281.320571756955 422.21956179852623 1287.8648727952814 431.58915579613006Q1294.4091738336078 440.9587497937339 1307.9878777501353 440.9587497937339Z " fill="black" transform="matrix(0.6450248781812146,0,0,0.6450248781812146,0,53.161961763668046)"/></g></svg>